<svg width="24" height="22" viewBox="0 0 24 22" fill="none" xmlns="http://www.w3.org/2000/svg">
  <path d="M20.8 14.0168C22.239 12.3649 23 10.9 23 10.9C23 10.9 19 3.2 12 3.2C11.6247 3.2 11.2579 3.22214 10.9 3.26404C10.5236 3.30811 10.1568 3.37404 9.8 3.45907M12 7.6C12.3857 7.6 12.7559 7.66616 13.1 7.78778C14.0376 8.11919 14.7808 8.86236 15.1122 9.8C15.2338 10.1441 15.3 10.5143 15.3 10.9M2.1 1L21.9 20.8M12 14.2C11.6143 14.2 11.2441 14.1338 10.9 14.0122C9.96236 13.6808 9.21918 12.9376 8.88777 12C8.82525 11.8231 8.77737 11.6393 8.74562 11.45M3.36171 7.6C3.02265 7.97896 2.71857 8.35065 2.4505 8.7C1.49815 9.94102 1 10.9 1 10.9C1 10.9 5 18.6 12 18.6C12.3753 18.6 12.7421 18.5779 13.1 18.536" stroke="#5B5B5B" stroke-linecap="round" stroke-linejoin="round"/>
</svg>
